<svg width="11" height="12" viewBox="0 0 11 12" fill="none" xmlns="http://www.w3.org/2000/svg">
<g clip-path="url(#clip0_4_5048)">
<path d="M1.25552 5.42152C1.25552 5.13256 1.39651 4.86178 1.63324 4.69607L5.17535 2.21659C5.48026 2.00315 5.88608 2.00315 6.19099 2.21659L9.7331 4.69607C9.96983 4.86178 10.1108 5.13256 10.1108 5.42152V9.83088C10.1108 10.3199 9.71435 10.7164 9.22529 10.7164H7.89699C7.40793 10.7164 7.01146 10.3199 7.01146 9.83088V9.16673C7.01146 8.67767 6.615 8.2812 6.12593 8.2812H5.24041C4.75134 8.2812 4.35488 8.67767 4.35488 9.16673V9.83088C4.35488 10.3199 3.95841 10.7164 3.46935 10.7164H2.14105C1.65199 10.7164 1.25552 10.3199 1.25552 9.83088V5.42152Z" fill="#B7BCC7"/>
</g>
<defs>
<clipPath id="clip0_4_5048">
<rect width="10.6264" height="10.6264" fill="white" transform="translate(0.369873 0.975403)"/>
</clipPath>
</defs>
</svg>
