<svg width="12" height="12" viewBox="0 0 12 12" fill="none" xmlns="http://www.w3.org/2000/svg">
<path d="M6.03139 1.86099C4.87134 1.86099 3.92825 2.80408 3.92825 3.96412C3.92825 5.10203 4.81821 6.02298 5.97825 6.06283C6.01367 6.0584 6.0491 6.0584 6.07566 6.06283C6.08452 6.06283 6.08894 6.06283 6.0978 6.06283C6.10223 6.06283 6.10223 6.06283 6.10666 6.06283C7.24013 6.02298 8.13009 5.10203 8.13452 3.96412C8.13452 2.80408 7.19143 1.86099 6.03139 1.86099Z" fill="#B7BCC7"/>
<path d="M8.28061 7.24058C7.0453 6.41704 5.03072 6.41704 3.78655 7.24058C3.22424 7.61693 2.91431 8.12611 2.91431 8.67071C2.91431 9.21531 3.22424 9.72006 3.78213 10.092C4.402 10.5082 5.21668 10.7163 6.03137 10.7163C6.84606 10.7163 7.66074 10.5082 8.28061 10.092C8.8385 9.71564 9.14843 9.21088 9.14843 8.66186C9.14401 8.11726 8.8385 7.6125 8.28061 7.24058Z" fill="#B7BCC7"/>
</svg>
