<svg width="11" height="11" viewBox="0 0 11 11" fill="none" xmlns="http://www.w3.org/2000/svg">
<path d="M8.91449 5.53798L5.41073 5.7502C5.18002 5.76163 4.96714 5.63534 4.88159 5.43629C4.84526 5.33512 4.82753 5.22901 4.82916 5.12238C4.75765 4.09666 4.68138 3.07094 4.60987 2.02753C4.59358 1.98234 4.57116 1.93925 4.54314 1.89931C4.43057 1.67922 4.17189 1.55744 3.91389 1.60309C1.78263 2.03082 0.259461 3.77643 0.252817 5.79883C0.249537 5.96298 0.260697 6.12711 0.286186 6.28959C0.351906 6.83789 0.535046 7.3685 0.82486 7.85028C1.81048 9.52301 3.86826 10.3916 5.8756 9.98221C7.88295 9.57281 9.35801 7.9837 9.49607 6.08179C9.49862 5.94225 9.44129 5.80748 9.33669 5.70715C9.23208 5.60682 9.08879 5.54915 8.93833 5.54682L8.91449 5.53798Z" fill="#F9F9FA"/>
<path opacity="0.6" d="M5.99644 0.131209C5.88262 0.126413 5.77143 0.163801 5.68736 0.235129C5.6033 0.306456 5.55329 0.405865 5.54834 0.511434V0.573331L5.82006 4.32695C5.81952 4.45144 5.87558 4.57037 5.97449 4.65453C6.0734 4.73869 6.20598 4.78027 6.33967 4.76907L10.3821 4.51706C10.4947 4.51026 10.5998 4.46212 10.674 4.3833C10.7483 4.30447 10.7856 4.20146 10.7778 4.09704C10.7801 4.08387 10.7801 4.07043 10.7778 4.05725C10.4133 1.85044 8.40249 0.199297 5.99644 0.131209Z" fill="white"/>
</svg>
